<svg width="515" height="744" viewBox="0 0 515 744" fill="none" xmlns="http://www.w3.org/2000/svg">
<path d="M408.13 168.53C554.963 324.375 528.917 657.488 451.442 730.483C373.966 803.478 312.274 557.827 165.442 401.983C18.6089 246.139 -43.0339 90.4783 34.4414 17.483C98.9415 -27.017 261.297 12.6858 408.13 168.53Z" fill="#64E66A"/>
<path d="M408.13 168.53C554.963 324.375 528.917 657.488 451.442 730.483C373.966 803.478 312.274 557.827 165.442 401.983C18.6089 246.139 -43.0339 90.4783 34.4414 17.483C98.9415 -27.017 261.297 12.6858 408.13 168.53Z" fill="#64E66A"/>
<path d="M408.13 168.53C554.963 324.375 528.917 657.488 451.442 730.483C373.966 803.478 312.274 557.827 165.442 401.983C18.6089 246.139 -43.0339 90.4783 34.4414 17.483C98.9415 -27.017 261.297 12.6858 408.13 168.53Z" stroke="#1F1F1F" stroke-width="2"/>
</svg>
