<svg width="415" height="737" viewBox="0 0 415 737" fill="none" xmlns="http://www.w3.org/2000/svg">
<path d="M307.961 169.233C381.134 246.897 411.304 368.843 413.46 480.611C414.538 536.476 408.614 589.739 397.596 633.572C386.567 677.447 370.471 711.723 351.314 729.772C341.757 738.777 332.554 742.769 323.493 742.735C314.414 742.7 305.289 738.623 295.901 731.102C277.089 716.03 257.609 687.454 235.864 651.547C227.642 637.97 219.105 623.358 210.166 608.061C171.91 542.59 126.317 464.561 66.7278 401.314C-6.63583 323.448 -58.6566 245.688 -82.6736 178.346C-106.687 111.012 -102.629 54.3775 -64.3697 18.2801C-32.51 -3.65165 23.7738 -4.95551 90.6343 18.8366C157.47 42.6201 234.637 91.4095 307.961 169.233Z" fill="#F0E3C9" stroke="#363636" stroke-width="2"/>
</svg>
