<svg width="53" height="53" viewBox="0 0 53 53" fill="none" xmlns="http://www.w3.org/2000/svg">
<path d="M24.1377 0.699017C21.7638 0.929485 19.5859 1.42499 17.5693 2.18554C10.3902 4.8705 4.80134 10.4824 2.15095 17.6846C1.36736 19.8049 1.01013 21.3721 0.745092 23.8496C0.318725 27.7676 0.802709 31.6625 2.15095 35.3154C4.82439 42.5637 10.4363 48.1756 17.6845 50.849C19.8049 51.6326 21.372 51.9898 23.8496 52.2549C27.7676 52.6812 31.6625 52.1973 35.3154 50.849C42.5636 48.1756 48.1756 42.5637 50.849 35.3154C51.6326 33.1951 51.9898 31.6279 52.2549 29.1504C52.6812 25.2324 52.1972 21.3375 50.849 17.6846C47.6685 9.07656 40.259 2.75019 31.2937 1.02167C29.2886 0.629875 26.1543 0.491592 24.1377 0.699017ZM24.0224 22.0635C25.7625 25.8662 27.2144 28.9891 27.272 29.0006C27.3181 29.0236 28.6088 25.9123 30.1299 22.0865L32.907 15.1494L36.9056 15.1148C40.8467 15.0918 40.9043 15.0918 40.9043 15.3223C40.9043 15.4605 40.4203 16.0137 39.6367 16.7742L38.3691 18.0072V26.4885V34.9697L39.6367 36.2373C40.3396 36.9287 40.9043 37.5971 40.9043 37.7008C40.9043 37.8967 40.5816 37.9082 35.2002 37.9082C29.7035 37.9082 29.4961 37.8967 29.4961 37.6893C29.4961 37.574 30.0146 36.9748 30.706 36.3064C31.3744 35.6611 31.9736 35.0043 32.0312 34.843C32.181 34.4627 32.1926 21.6832 32.0427 21.833C31.9851 21.9021 30.5562 25.4398 28.8738 29.7035C27.1914 33.9672 25.7625 37.551 25.6933 37.6893C25.5896 37.8736 25.4744 37.9082 25.1517 37.8851L24.7369 37.8506L21.0379 29.7957L17.3388 21.7293L17.3043 27.3182C17.2927 30.3834 17.3043 33.0107 17.3388 33.149C17.3734 33.2873 18.0302 34.1631 18.8138 35.108C20.6345 37.309 20.7844 37.5049 20.7037 37.7238C20.6345 37.8851 20.139 37.9082 16.3594 37.9082H12.0957V37.6316C12.0957 37.4588 12.6258 36.7328 13.6629 35.4768C14.5271 34.4396 15.2992 33.4256 15.3914 33.2182C15.5181 32.9185 15.5527 31.6394 15.5527 26.3041C15.5527 22.6973 15.5066 19.5975 15.449 19.39C15.3914 19.1941 14.6885 18.2492 13.8933 17.2928C13.0982 16.3363 12.4414 15.449 12.4414 15.3223C12.4414 15.0918 12.522 15.0918 16.659 15.1148L20.8765 15.1494L24.0224 22.0635Z" fill="#DDDDDD"/>
</svg>
